<?xml version="1.0" encoding="utf-8"?>
<!-- Generator: Adobe Illustrator 26.0.3, SVG Export Plug-In . SVG Version: 6.00 Build 0)  -->
<svg version="1.0" id="Layer_1" xmlns="http://www.w3.org/2000/svg" xmlns:xlink="http://www.w3.org/1999/xlink" x="0px" y="0px"
	 viewBox="0 0 253.6 178.2" style="enable-background:new 0 0 253.6 178.2;" xml:space="preserve">
<style type="text/css">
	.st0{fill-rule:evenodd;clip-rule:evenodd;fill:#740026;}
	.st1{fill-rule:evenodd;clip-rule:evenodd;fill:#E69813;}
	.st2{fill:#740026;}
</style>
<path class="st0" d="M29,88.9c0-18,14.6-32.6,32.6-32.6s32.6,14.6,32.6,32.6c0,18.4-14.6,33.3-32.6,33.3S29,107.3,29,88.9"/>
<path class="st1" d="M89,88.7c0-0.9,0.7-1.7,1.7-1.7c0.9,0,1.7,0.7,1.7,1.7c0,0.9-0.7,1.7-1.7,1.7c0,0,0,0,0,0
	C89.8,90.4,89,89.6,89,88.7C89,88.7,89,88.7,89,88.7 M48.4,68.1h11.4c0.9,0,1.7,0.7,1.7,1.6c0,0,0,0.1,0,0.1V78
	c-0.2-0.5-0.8-0.8-1.3-0.7h-10c-0.4,0-1.7-0.7-1.7-1.4L48.4,68.1z M54.5,84.7c-3.2,2.4-5,6.1-5,10.1c-0.2,6.7,5.1,12.2,11.7,12.4
	c6.7,0.2,12.2-5.1,12.4-11.7c0-0.2,0-0.5,0-0.7c0-4-1.8-7.7-5-10.1c1.9,1.9,3,4.6,3,7.3c0,5.5-4.5,10-10,10s-10-4.5-10-10l0,0
	C51.5,89.3,52.5,86.6,54.5,84.7L54.5,84.7z M45,94.7c-0.1-8.9,6.7-16.3,15.5-16.9v4.5l0,0v3.9c-3.1,0.5-5.2,3.5-4.7,6.6
	c0.5,3.1,3.5,5.2,6.6,4.7c3.1-0.5,5.2-3.5,4.7-6.6c-0.4-2.4-2.3-4.3-4.7-4.7v-8.4c9.3,0.8,16.2,9,15.3,18.3
	c-0.8,8.6-7.8,15.2-16.4,15.4C52.3,111.4,44.9,103.9,45,94.7C45,94.7,45,94.7,45,94.7L45,94.7z M74.8,68.1H63.5
	c-0.9,0-1.6,0.7-1.7,1.6c0,0,0,0,0,0v8.2c0.2-0.5,0.8-0.8,1.3-0.7h10c0.4,0,1.7-0.7,1.7-1.4L74.8,68.1z M34.3,92.1l0.1,0.8l-2.1,0.2
	c-0.2,0-0.4,0.1-0.5,0.2c-0.2,0.1-0.3,0.4-0.2,0.7c0,0.3,0.2,0.5,0.4,0.6c0.2,0,0.4,0,0.5,0l2.2-0.4l0.1,0.8l-2.2,0.4
	c-0.3,0.1-0.6,0.1-0.9,0c-0.4-0.2-0.7-0.7-0.8-1.2c-0.1-0.5,0-1,0.4-1.4c0.3-0.2,0.5-0.3,0.9-0.3L34.3,92.1z M34.8,95.5l0.2,0.8
	l-2,2.1l2.4-0.7l0.2,0.7l-3.4,1L32,98.6l2-2.2l-2.4,0.6l-0.2-0.7L34.8,95.5z M32.8,100.8l-0.2-0.8l3.3-1.4l0.3,0.7L32.8,100.8z
	 M37.3,101.8l0.4,0.7l-3.7,0.5l-0.3-0.7l2.6-2.8l0.4,0.7l-2.1,2L37.3,101.8z M38.7,105.3l-1.1-1.6l-0.6,0.4l1,1.5l-0.5,0.4l-1-1.5
	l-0.8,0.5l1.1,1.7l-0.5,0.4l-1.5-2.4l3-2.1l1.5,2.2L38.7,105.3z M40.9,107.3c0,0.1,0,0.3,0,0.4c0,0.1-0.1,0.2-0.1,0.3
	c-0.1,0.1-0.1,0.2-0.2,0.3c-0.1,0.1-0.3,0.2-0.5,0.2c-0.2,0-0.4,0-0.5-0.1c0.1,0.1,0.1,0.3,0,0.5c-0.1,0.2-0.2,0.3-0.4,0.5l-0.2,0.2
	c-0.1,0.1-0.2,0.1-0.2,0.2c-0.1,0.1-0.1,0.2-0.1,0.2l-0.1,0.1l-0.5-0.7l0.1-0.2c0.1-0.1,0.1-0.2,0.2-0.2l0.2-0.2
	c0.2-0.2,0.3-0.3,0.3-0.4c0-0.2-0.1-0.3-0.2-0.4l-0.5-0.6l-1.1,0.9l-0.5-0.6l2.7-2.4l1.1,1.4c0.2,0.1,0.3,0.3,0.4,0.4L40.9,107.3z
	 M39.5,106.4l-0.7,0.6l0.5,0.7c0.1,0.1,0.2,0.2,0.3,0.3c0.2,0.1,0.3,0,0.5-0.1c0.1-0.1,0.2-0.3,0.2-0.5c0-0.1-0.1-0.2-0.2-0.3
	L39.5,106.4z M40.4,110.3c-0.2,0.3-0.2,0.7,0,0.9c0,0,0.1,0.1,0.1,0.1c0.1,0.1,0.2,0.2,0.3,0.3c0.2,0.1,0.4,0.1,0.5-0.1
	c0.1-0.1,0.1-0.2,0.1-0.3c-0.1-0.2-0.1-0.3-0.2-0.5l-0.2-0.3c-0.2-0.2-0.3-0.5-0.4-0.8c-0.1-0.3,0-0.6,0.3-0.8
	c0.2-0.2,0.5-0.4,0.8-0.3c0.4,0,0.7,0.2,1,0.5c0.3,0.2,0.4,0.6,0.5,0.9c0.1,0.3,0,0.7-0.3,0.9l-0.5-0.5c0.1-0.2,0.2-0.4,0.1-0.6
	c-0.1-0.1-0.1-0.3-0.3-0.4c-0.1-0.1-0.3-0.2-0.4-0.2c-0.1,0-0.3,0-0.4,0.1c-0.1,0.1-0.1,0.2-0.1,0.3c0.1,0.2,0.1,0.3,0.2,0.4
	l0.3,0.6c0.1,0.2,0.2,0.4,0.3,0.6c0,0.3-0.1,0.6-0.3,0.8c-0.2,0.2-0.5,0.4-0.8,0.3c-0.4,0-0.7-0.2-1-0.5c-0.3-0.3-0.5-0.6-0.6-1
	c-0.1-0.4,0-0.7,0.3-1L40.4,110.3z M42.2,113.6l-0.6-0.5l2.3-2.8l0.6,0.5L42.2,113.6z M47.1,112.6l-0.3,0.5l-0.9-0.6l-1.7,2.4
	l-0.6-0.4l1.7-2.5l-0.9-0.6l0.4-0.5L47.1,112.6z M46.1,116.2l-0.6-0.4l1.8-3.2l0.6,0.4L46.1,116.2z M52,115.1l-0.3,0.6l-1-0.5
	l-1.2,2.8l-0.7-0.4l1.2-2.8l-1-0.5l0.3-0.6L52,115.1z M54.5,116.6l-1.8-0.6l-0.2,0.7l1.6,0.6l-0.2,0.6l-1.7-0.6l-0.3,0.9l1.9,0.6
	l-0.2,0.6l-2.6-0.9l1.1-3.5l2.5,0.8L54.5,116.6z M55.1,116.1l0.7,0.2l-0.3,1.5l1.6-1.2l1,0.2l-1.7,1.2l1.1,2.4l-1-0.2l-0.8-1.8
	l-0.4,0.3l-0.2,1.2l-0.7-0.1L55.1,116.1z M58.4,116.7l0.8,0.1l1.2,2.7l0.2-2.6h0.7l-0.2,3.7l-0.8-0.1l-1.3-2.7l-0.2,2.6l-0.7-0.1
	L58.4,116.7z M64.7,120c-0.6,0.6-1.6,0.7-2.3,0.2c-0.8-0.8-0.9-2.1-0.3-3c0.3-0.3,0.7-0.5,1.1-0.5c0.4-0.1,0.9,0,1.2,0.3
	c0.4,0.4,0.7,0.9,0.7,1.5C65.2,119,65,119.6,64.7,120L64.7,120z M64.2,119.5c0.2-0.3,0.2-0.7,0.2-1c0-0.3-0.1-0.7-0.3-0.9
	c-0.2-0.2-0.5-0.3-0.7-0.3c-0.3,0-0.5,0.2-0.7,0.4c-0.2,0.3-0.2,0.7-0.2,1c0,0.3,0.1,0.7,0.3,0.9c0.2,0.2,0.5,0.3,0.7,0.3
	C63.8,119.9,64,119.7,64.2,119.5L64.2,119.5z M65.3,116.6l0.7-0.2l0.6,3l1.7-0.4l0.1,0.6l-2.5,0.5L65.3,116.6z M71.7,118.3
	c-0.2,0.4-0.6,0.7-1,0.8c-0.4,0.2-0.9,0.2-1.2,0c-0.5-0.3-0.9-0.7-1-1.3c-0.2-0.5-0.2-1.1,0-1.6c0.2-0.4,0.6-0.7,1-0.8
	c0.4-0.2,0.9-0.2,1.2,0c0.5,0.2,0.9,0.7,1,1.2C71.9,117.1,71.8,117.7,71.7,118.3L71.7,118.3z M71.1,117.9c0.1-0.3,0.1-0.7-0.1-1
	c-0.1-0.3-0.3-0.6-0.6-0.8c-0.2-0.2-0.5-0.2-0.8-0.1c-0.3,0.1-0.5,0.3-0.6,0.6c-0.1,0.3-0.1,0.7,0,1c0.1,0.3,0.3,0.6,0.6,0.8
	c0.2,0.2,0.5,0.2,0.8,0.1C70.7,118.4,71,118.1,71.1,117.9L71.1,117.9z M74.1,114.7c-0.1-0.2-0.4-0.3-0.6-0.3c-0.1,0-0.3,0.1-0.4,0.1
	c-0.3,0.1-0.4,0.3-0.5,0.6c-0.1,0.3,0,0.7,0.2,1c0.1,0.3,0.4,0.6,0.7,0.7c0.2,0.1,0.5,0.1,0.7-0.1c0.2-0.1,0.4-0.3,0.5-0.5
	c0.1-0.2,0.1-0.4,0-0.7l-0.7,0.4l-0.3-0.6l1.3-0.7l0.8,1.8l-0.5,0.2l-0.3-0.4c0,0.2-0.1,0.3-0.2,0.5c-0.1,0.2-0.3,0.4-0.6,0.5
	c-0.4,0.2-0.9,0.2-1.3,0.1c-0.5-0.2-0.8-0.5-1-1c-0.3-0.5-0.3-1-0.2-1.5c0.1-0.5,0.5-0.9,0.9-1.1c0.3-0.2,0.8-0.3,1.1-0.2
	c0.3,0.1,0.6,0.3,0.8,0.6L74.1,114.7z M77.1,115.8l-0.6,0.4l-1.8-3.2l0.6-0.4L77.1,115.8z M78.6,110.1l0.8-0.7l2.2,2.9l-0.5,0.4
	l-1.5-1.9c-0.1-0.1-0.1-0.1-0.2-0.2l-0.2-0.2l1.4,2.8l-0.6,0.5l-2.4-2c0.1,0,0.1,0.1,0.2,0.2l0.2,0.2l1.5,1.9l-0.6,0.4l-2.2-2.8
	l0.8-0.7l2.3,1.8L78.6,110.1z M80.5,108.3l0.6-0.6l3.4,1.6l-0.6,0.6l-0.7-0.3l-0.9,1l0.3,0.7l-0.5,0.6L80.5,108.3z M82,109.9
	l0.6-0.7l-1.3-0.7L82,109.9z M82,106.5l0.5-0.6l2.3,1.9l1.1-1.4l0.5,0.4l-1.6,2L82,106.5z M84.3,103.4l0.4-0.7l3.7,0.8l-0.4,0.7
	l-0.8-0.2l-0.6,1.1l0.5,0.6l-0.4,0.7L84.3,103.4z M86.1,104.6l0.5-0.8l-1.4-0.4L86.1,104.6z M86.1,99.8l0.4-0.8l1.6,2.1l1.2,0.6
	l-0.3,0.7l-1.2-0.6l-2.5,0.2l0.4-0.8h1.7L86.1,99.8z M89.1,99.1c0.1,0,0.3,0,0.4,0c0.2-0.1,0.4-0.3,0.4-0.5c0.1-0.1,0.1-0.3,0.1-0.4
	c0-0.2-0.1-0.4-0.3-0.4c-0.1,0-0.2,0-0.3,0.1c-0.1,0.1-0.2,0.3-0.3,0.4l-0.2,0.3c-0.1,0.2-0.3,0.5-0.5,0.7c-0.2,0.2-0.6,0.2-0.8,0.1
	c-0.3-0.1-0.5-0.3-0.6-0.6c-0.1-0.4-0.1-0.7,0-1.1c0.1-0.3,0.3-0.6,0.6-0.8c0.3-0.2,0.7-0.3,1-0.1l-0.2,0.7c-0.2-0.1-0.4,0-0.5,0.1
	c-0.1,0.1-0.2,0.2-0.2,0.4c0,0.2,0,0.3,0,0.5c0,0.1,0.1,0.2,0.3,0.3c0.1,0,0.2,0,0.3-0.1c0.1-0.1,0.2-0.3,0.3-0.4l0.3-0.6
	c0.1-0.2,0.3-0.4,0.4-0.5c0.2-0.2,0.5-0.2,0.8-0.1c0.3,0.1,0.5,0.3,0.6,0.6c0.1,0.4,0.1,0.8,0,1.1c-0.1,0.4-0.3,0.8-0.7,1
	c-0.3,0.2-0.7,0.2-1,0.1L89.1,99.1z M91.2,95.9L91,96.7l-3.5-0.8l0.2-0.8L91.2,95.9z M88,93.6l0.1-0.9l3.7-0.8l-0.1,0.8L91,92.8
	l-0.1,1.3l0.7,0.3l-0.1,0.8L88,93.6z M90.2,93.9l0.1-0.9l-1.4,0.3L90.2,93.9z M30.8,84.7l0.1-0.8l1.5,0.3l-1.2-1.7l0.2-1l1.2,1.8
	l2.4-1.1l-0.2,1L33,84l0.3,0.4l1.2,0.2l-0.1,0.7L30.8,84.7z M33.1,78.4l-0.7,1.9l0.7,0.2l0.6-1.7l0.6,0.2l-0.6,1.7l0.9,0.3l0.7-2
	l0.6,0.2L35,82l-3.4-1.2l0.9-2.6L33.1,78.4z M33.8,75.2c0.1-0.1,0.2-0.2,0.4-0.2c0.1,0,0.2,0,0.3,0c0.3,0,0.6,0.2,0.8,0.4
	c0.1,0.2,0.2,0.4,0.1,0.6c0.1-0.1,0.2-0.2,0.4-0.2c0.2,0,0.4,0,0.5,0.1l0.2,0.1c0.1,0.1,0.2,0.1,0.3,0.1c0.1,0,0.2,0,0.2,0h0.1
	l-0.3,0.8c-0.1,0-0.1,0-0.2,0c-0.1,0-0.2-0.1-0.3-0.1l-0.3-0.1c-0.1-0.1-0.3-0.1-0.5-0.1c-0.1,0.1-0.2,0.2-0.3,0.4L35,77.7l1.3,0.6
	L36,79l-3.2-1.6l0.7-1.6C33.6,75.5,33.7,75.4,33.8,75.2z M33.6,76.9l0.9,0.4l0.3-0.8c0.1-0.1,0.1-0.2,0.1-0.4c0-0.2-0.1-0.3-0.3-0.4
	c-0.1-0.1-0.3-0.1-0.5,0C34.1,75.9,34,76,34,76.1L33.6,76.9z M35,72.9l0.5-0.7l3.7,0.9l-0.4,0.7L38,73.6l-0.7,1.1l0.5,0.6l-0.4,0.7
	L35,72.9z M36.8,74.2l0.5-0.8L35.9,73L36.8,74.2z M36.5,70.5l0.5-0.6l2.8,0.5l-1.9-1.6l0.4-0.6l2.8,2.3l-0.5,0.6l-2.9-0.5l2,1.6
	l-0.4,0.6L36.5,70.5z M39.8,66.8l0.6-0.6l3.4,1.8l-0.6,0.6l-0.7-0.4l-1,0.9l0.3,0.7l-0.6,0.5L39.8,66.8z M41.3,68.5l0.7-0.6
	l-1.3-0.8L41.3,68.5z M45,62.6l0.3,0.5l-0.9,0.6l1.7,2.5l-0.6,0.4l-1.7-2.5l-0.9,0.6l-0.4-0.5L45,62.6z M45.6,62.2l0.7-0.4l1,2
	c0.1,0.2,0.2,0.3,0.3,0.4c0.2,0.1,0.5,0.1,0.7,0c0.2-0.1,0.4-0.3,0.4-0.6c0-0.2-0.1-0.4-0.2-0.5l-1-2l0.7-0.4l1,2
	c0.2,0.3,0.2,0.6,0.3,0.9c0,0.5-0.4,0.9-0.8,1.1c-0.4,0.3-1,0.3-1.4,0.1c-0.2-0.2-0.4-0.4-0.6-0.7L45.6,62.2z M50.3,63.8l-1.4-3.4
	l0.7-0.3l0.5,1.3l1.3-0.5l-0.5-1.3l0.7-0.3l1.3,3.4L52.2,63l-0.6-1.5L50.3,62l0.6,1.5L50.3,63.8z M53.5,58.8l0.8-0.2l2.1,3.3
	L55.7,62l-0.4-0.7L54,61.7l-0.1,0.8l-0.8,0.2L53.5,58.8z M54,61l0.9-0.2l-0.8-1.3L54,61z M56.2,58.1L57,58l1.7,2.4l-0.3-2.6l0.7-0.1
	l0.4,3.7l-0.7,0.1L57,59.1l0.3,2.6l-0.7,0.1L56.2,58.1z M61.6,57.6l0.8,0.1L62.2,60c0,0.2,0,0.4,0,0.6c0.1,0.2,0.3,0.4,0.6,0.3
	c0.2,0.1,0.5-0.1,0.6-0.3c0.1-0.2,0.1-0.4,0.1-0.6l0.2-2.3l0.8,0.1l-0.2,2.3c0,0.3-0.1,0.6-0.2,0.9c-0.6,0.7-1.6,0.7-2.3,0.1
	c-0.1-0.1-0.2-0.2-0.2-0.2c-0.1-0.3-0.2-0.6-0.1-0.9L61.6,57.6z M65.4,57.9l0.8,0.2l0.9,2.8l0.5-2.5l0.7,0.1l-0.7,3.6L66.8,62
	l-1-2.9l-0.5,2.6l-0.7-0.1L65.4,57.9z M71.6,59.6l-0.2,0.6l-1-0.3l-0.9,2.9l-0.7-0.2l0.9-2.9l-1-0.3l0.2-0.6L71.6,59.6z M72.3,59.8
	l0.7,0.3L72,62.2c-0.1,0.2-0.1,0.4-0.2,0.5c0,0.2,0.1,0.4,0.4,0.5c0.2,0.1,0.5,0.1,0.7,0c0.1-0.1,0.2-0.3,0.3-0.5l0.9-2.1l0.7,0.3
	l-0.9,2.1c-0.1,0.3-0.3,0.5-0.5,0.8c-0.4,0.3-1,0.3-1.4,0c-0.5-0.2-0.8-0.6-0.9-1.1c0-0.3,0.1-0.6,0.2-0.9L72.3,59.8z M75.7,61.5
	l0.6,0.4l-0.8,1.3l1.9-0.6l0.8,0.5l-2,0.5l0.2,2.7l-0.8-0.5l-0.2-2L75.1,64l-0.6,1l-0.7-0.3L75.7,61.5z M81.9,66.2l0.8,0.7l-2.3,2.8
	l-0.6-0.5l1.6-1.9l0.2-0.2l0.2-0.2l-2.5,1.9l-0.5-0.5l1.5-2.8c0,0.1-0.1,0.1-0.2,0.2c-0.1,0.1-0.1,0.2-0.2,0.2l-1.6,1.9l-0.5-0.5
	l2.3-2.8l0.8,0.7l-1.4,2.6L81.9,66.2z M84.1,68.4l0.6,0.7l-1.9,3.4l-0.5-0.6l0.4-0.7l-0.9-1L81,70.5l-0.5-0.6L84.1,68.4z M82.3,69.9
	l0.6,0.7l0.8-1.3L82.3,69.9z M85.8,70.6l0.5,0.7l-1.2,2.7l2.1-1.5l0.4,0.6l-2.9,2.1l-0.4-0.6l1.2-2.7l-2.1,1.5l-0.4-0.6L85.8,70.6z
	 M88,73.8l0.4,0.7l-1.9,1.1c-0.2,0.1-0.3,0.2-0.4,0.3c-0.1,0.2-0.1,0.5,0,0.7c0.1,0.2,0.3,0.4,0.5,0.4c0.2,0,0.4-0.1,0.5-0.2
	l1.9-1.1l0.4,0.7l-1.9,1.1c-0.3,0.2-0.6,0.3-0.9,0.3c-0.5,0-0.9-0.4-1.1-0.8c-0.3-0.4-0.3-1-0.1-1.4c0.2-0.3,0.4-0.5,0.7-0.6
	L88,73.8z M87.6,78.8c-0.1,0.1-0.2,0.2-0.3,0.3c-0.1,0.2-0.1,0.5,0,0.7c0.1,0.1,0.1,0.3,0.2,0.4c0.1,0.2,0.3,0.2,0.5,0.1
	c0.1,0,0.2-0.1,0.2-0.3c0-0.2,0-0.4,0-0.5l-0.1-0.4c0-0.3,0-0.6,0-0.8c0.1-0.3,0.3-0.5,0.6-0.7c0.3-0.1,0.6-0.1,0.9,0
	c0.3,0.2,0.6,0.5,0.7,0.8c0.1,0.3,0.2,0.7,0.1,1c-0.1,0.3-0.3,0.6-0.7,0.7l-0.3-0.7c0.2-0.1,0.3-0.2,0.3-0.4c0-0.2,0-0.3-0.1-0.4
	c-0.1-0.2-0.1-0.3-0.3-0.4c-0.1-0.1-0.3-0.1-0.4,0c-0.1,0-0.2,0.1-0.2,0.3c0,0.2,0,0.3,0,0.5l0.1,0.6c0,0.2,0,0.5,0,0.7
	c-0.1,0.3-0.3,0.5-0.6,0.6c-0.3,0.1-0.6,0.1-0.9,0c-0.3-0.2-0.6-0.5-0.7-0.9c-0.2-0.4-0.2-0.8-0.1-1.2c0.1-0.3,0.3-0.6,0.7-0.7
	L87.6,78.8z M87.8,82.4l-0.2-0.7l3.4-1.1l0.2,0.7L87.8,82.4z M91.6,83.2l0.2,0.8l-3.2,2.1l-0.2-0.8l0.7-0.4l-0.3-1.3L88,83.5
	l-0.2-0.8L91.6,83.2z M89.4,83.7l0.2,0.9l1.3-0.8L89.4,83.7z M30.8,88.5c0-0.9,0.7-1.7,1.7-1.7c0.9,0,1.7,0.7,1.7,1.7
	c0,0.9-0.7,1.7-1.7,1.7c0,0,0,0,0,0C31.6,90.2,30.8,89.4,30.8,88.5z"/>
<path class="st0" d="M105.7,110h1l1.9,4.7V110h0.9v6.7h-1l-2-4.8v4.8h-0.9L105.7,110z M111.6,116.7h-1V110h1V116.7z M115.5,110h1
	l-1.6,6.7H114l-1.6-6.7h1.1l1,5.1L115.5,110z M120.9,111.2h-2.5v1.4h2.3v1.2h-2.3v1.7h2.7v1.2h-3.6V110h3.5L120.9,111.2z
	 M125.1,110.2c0.2,0.1,0.3,0.3,0.5,0.5c0.1,0.2,0.2,0.4,0.2,0.6c0.1,0.2,0.1,0.5,0.1,0.7c0,0.3-0.1,0.6-0.2,0.9
	c-0.1,0.3-0.3,0.5-0.6,0.7c0.2,0.1,0.4,0.3,0.5,0.5c0.1,0.3,0.2,0.7,0.1,1v0.4c0,0.2,0,0.4,0,0.6c0,0.1,0.1,0.3,0.2,0.4v0.2h-1.1
	c0-0.2,0-0.3-0.1-0.4c0-0.2,0-0.4,0-0.6v-0.6c0-0.3,0-0.6-0.2-0.8c-0.2-0.2-0.4-0.2-0.6-0.2h-1v2.6h-1V110h2.3
	C124.6,110,124.9,110.1,125.1,110.2L125.1,110.2z M123,111.2v1.8h1.1c0.2,0,0.4,0,0.5-0.1c0.2-0.2,0.3-0.5,0.3-0.8
	c0-0.3-0.1-0.6-0.3-0.8c-0.1-0.1-0.3-0.1-0.5-0.1H123z M127.7,114.6c0,0.2,0.1,0.5,0.2,0.7c0.2,0.3,0.5,0.4,0.8,0.4
	c0.2,0,0.4,0,0.6-0.1c0.3-0.1,0.5-0.5,0.4-0.8c0-0.2-0.1-0.4-0.2-0.5c-0.2-0.2-0.4-0.3-0.7-0.3l-0.5-0.2c-0.4-0.1-0.7-0.3-1-0.5
	c-0.4-0.4-0.5-0.9-0.5-1.4c0-0.5,0.1-1.1,0.5-1.5c0.3-0.4,0.8-0.6,1.4-0.6c0.5,0,1,0.2,1.3,0.6c0.4,0.5,0.6,1,0.6,1.6h-1
	c0-0.3-0.1-0.7-0.4-0.9c-0.2-0.1-0.4-0.2-0.6-0.2c-0.2,0-0.5,0.1-0.6,0.2c-0.2,0.2-0.2,0.4-0.2,0.6c0,0.2,0.1,0.4,0.2,0.5
	c0.2,0.1,0.4,0.2,0.6,0.3l0.8,0.3c0.3,0.1,0.6,0.3,0.8,0.5c0.3,0.4,0.5,0.9,0.4,1.4c0,0.6-0.2,1.1-0.5,1.5c-0.4,0.4-0.9,0.6-1.4,0.6
	c-0.6,0-1.1-0.2-1.5-0.6c-0.4-0.5-0.6-1-0.5-1.6L127.7,114.6z M132.5,116.7h-1V110h1V116.7z M137.1,110v1.2h-1.4v5.5h-1v-5.5h-1.4
	V110H137.1z M138.7,116.7h-1V110h1V116.7z M147.4,110v1.2H146v5.5h-1v-5.5h-1.4V110H147.4z M151.7,111.2h-2.5v1.4h2.3v1.2h-2.3v1.7
	h2.7v1.2h-3.6V110h3.5L151.7,111.2z M152.8,110h1v2.8l1.9-2.8h1.3l-2,2.8l2.1,3.9h-1.3l-1.5-2.9l-0.5,0.7v2.2h-1L152.8,110z
	 M157.8,110h1l1.9,4.7V110h0.9v6.7h-1l-2-4.8v4.8h-0.9L157.8,110z M166.5,116.1c-0.7,0.9-1.9,1-2.8,0.3c-0.1-0.1-0.2-0.2-0.3-0.3
	c-0.5-0.8-0.8-1.8-0.7-2.8c-0.1-1,0.2-1.9,0.7-2.8c0.7-0.9,1.9-1,2.8-0.3c0.1,0.1,0.2,0.2,0.3,0.3c0.5,0.8,0.8,1.8,0.7,2.8
	C167.2,114.3,167,115.3,166.5,116.1L166.5,116.1z M165.8,115.1c0.5-1.1,0.5-2.4,0-3.5c-0.2-0.4-0.5-0.6-0.9-0.6
	c-0.4,0-0.8,0.2-1,0.6c-0.5,1.1-0.5,2.4,0,3.5c0.2,0.4,0.6,0.6,1,0.6C165.3,115.7,165.7,115.5,165.8,115.1L165.8,115.1z M168.1,110
	h1v5.5h2.4v1.2h-3.4V110z M176,116.1c-0.7,0.9-1.9,1-2.8,0.3c-0.1-0.1-0.2-0.2-0.3-0.3c-0.5-0.8-0.8-1.8-0.7-2.8
	c-0.1-1,0.2-1.9,0.7-2.8c0.7-0.9,1.9-1,2.8-0.3c0.1,0.1,0.2,0.2,0.3,0.3c0.5,0.8,0.8,1.8,0.7,2.8C176.8,114.3,176.5,115.3,176,116.1
	L176,116.1z M175.4,115.1c0.5-1.1,0.5-2.4,0-3.5c-0.2-0.4-0.5-0.6-0.9-0.6c-0.4,0-0.8,0.2-1,0.6c-0.5,1.1-0.5,2.4,0,3.5
	c0.2,0.4,0.6,0.6,1,0.6C174.9,115.7,175.2,115.5,175.4,115.1L175.4,115.1z M180.9,112.1c0-0.4-0.2-0.7-0.6-0.9
	c-0.2-0.1-0.4-0.2-0.6-0.2c-0.4,0-0.8,0.2-1,0.6c-0.3,0.6-0.4,1.2-0.4,1.8c-0.1,0.6,0.1,1.2,0.4,1.7c0.2,0.3,0.5,0.5,0.9,0.5
	c0.3,0,0.6-0.1,0.8-0.4c0.2-0.3,0.4-0.7,0.4-1.1h-1.1v-1.2h2v3.6h-0.7l-0.1-0.8c-0.1,0.2-0.3,0.5-0.5,0.7c-0.3,0.2-0.6,0.4-1,0.3
	c-0.6,0-1.2-0.4-1.6-0.9c-0.5-0.8-0.7-1.6-0.6-2.5c0-0.9,0.2-1.8,0.6-2.6c0.3-0.6,1-1,1.7-1c0.6,0,1.1,0.2,1.5,0.7
	c0.4,0.5,0.6,1,0.6,1.6L180.9,112.1z M184,116.7h-1V110h1V116.7z M192.3,110h1.4v6.7h-0.9v-4.5c0-0.1,0-0.3,0-0.6v-0.6l-0.9,5.6h-1
	l-0.9-5.6v0.5c0,0.2,0,0.4,0,0.6v4.5h-0.9V110h1.5l0.9,5.2L192.3,110z M196.2,110h1.1l1.7,6.7H198l-0.3-1.4h-1.9l-0.3,1.4h-1.1
	L196.2,110z M196.2,114.2h1.2l-0.6-2.6L196.2,114.2z M199.8,110h1v5.5h2.4v1.2h-3.4L199.8,110z M205.4,110h1.1l1.7,6.7h-1.1
	l-0.3-1.4h-1.8l-0.3,1.4h-1L205.4,110z M205.4,114.2h1.2l-0.6-2.6L205.4,114.2z M211.8,110h1.1l-1.6,4.2v2.5h-1v-2.5l-1.7-4.2h1.2
	l1,2.9L211.8,110z M214.4,114.7c0,0.2,0.1,0.5,0.2,0.7c0.2,0.3,0.5,0.4,0.8,0.4c0.2,0,0.4,0,0.6-0.1c0.3-0.1,0.5-0.5,0.4-0.8
	c0-0.2-0.1-0.4-0.2-0.5c-0.2-0.1-0.4-0.3-0.7-0.3l-0.5-0.2c-0.4-0.1-0.7-0.3-1-0.5c-0.4-0.4-0.5-0.9-0.5-1.4c0-0.5,0.1-1.1,0.5-1.5
	c0.3-0.4,0.9-0.6,1.4-0.6c0.5,0,1,0.2,1.3,0.6c0.4,0.5,0.6,1,0.6,1.6h-1c0-0.4-0.1-0.7-0.4-0.9c-0.2-0.1-0.4-0.2-0.6-0.2
	c-0.2,0-0.5,0.1-0.6,0.2c-0.2,0.2-0.2,0.4-0.2,0.6c0,0.2,0.1,0.4,0.2,0.5c0.2,0.1,0.4,0.2,0.6,0.3l0.8,0.3c0.3,0.1,0.6,0.3,0.8,0.5
	c0.3,0.4,0.5,0.9,0.4,1.4c0,0.6-0.2,1.1-0.5,1.5c-0.4,0.4-0.9,0.6-1.4,0.6c-0.6,0-1.1-0.2-1.5-0.6c-0.4-0.5-0.6-1-0.5-1.6
	L214.4,114.7z M219.2,116.7h-1V110h1V116.7z M221.7,110h1.1l1.7,6.7h-1.1l-0.3-1.4h-1.8l-0.3,1.4h-1.1L221.7,110z M221.6,114.2h1.2
	l-0.6-2.6L221.6,114.2z M100.8,110h1v4.1c0,0.3,0,0.7,0.1,1c0.2,0.4,0.6,0.7,1.1,0.5c0.2-0.1,0.4-0.3,0.5-0.5c0.1-0.3,0.1-0.7,0.1-1
	V110h1v4.1c0,0.6-0.1,1.1-0.2,1.7c-0.4,0.9-1.5,1.3-2.5,0.9c-0.4-0.2-0.7-0.5-0.9-0.9c-0.2-0.5-0.3-1.1-0.2-1.7L100.8,110z"/>
<path class="st2" d="M174.5,75.1h-2.7l-0.2-0.9c-0.1-0.3-0.2-0.7-0.3-1.1c-0.1-0.4-0.3-0.8-0.5-1.3l0,0c-0.2-0.5-0.4-1-0.6-1.4
	s-0.4-0.9-0.7-1.3l0,0c-0.2-0.4-0.5-0.8-0.7-1.2c-0.2-0.3-0.5-0.7-0.8-1l0,0c-0.2-0.2-0.4-0.4-0.6-0.6c-0.1-0.1-0.3-0.2-0.4-0.2l0,0
	c-0.3,0-0.5-0.1-0.8-0.1s-0.6,0-1-0.1h-1.1h-1h-0.3v32.8c0,0.2,0,0.5,0.1,0.7c0,0.2,0.1,0.4,0.2,0.6l0,0c0.1,0.1,0.1,0.3,0.2,0.4
	c0.1,0.1,0.3,0.2,0.4,0.3c0.2,0.1,0.4,0.1,0.6,0.2c0.3,0.1,0.7,0.2,1.1,0.3l0,0c0.4,0.1,0.9,0.2,1.2,0.3c0.3,0.1,0.6,0.1,0.8,0.1
	h1.1v4.4h-19.3v-4.3l1-0.1l0.9-0.1l1.2-0.2c0.4,0,0.8-0.1,1.1-0.2c0.2,0,0.4-0.1,0.5-0.2l0,0c0.2-0.1,0.3-0.2,0.4-0.3
	c0.1-0.1,0.2-0.2,0.2-0.3l0,0c0.1-0.2,0.2-0.4,0.2-0.6c0.1-0.3,0.1-0.6,0.1-0.9v-33h-1.2c-0.3,0-0.6,0-1,0l0,0l-1.1,0.1l-1,0.1l0,0
	c-0.1,0-0.3,0.1-0.4,0.2c-0.2,0.2-0.5,0.4-0.7,0.6c-0.3,0.3-0.5,0.7-0.8,1s-0.5,0.8-0.7,1.2c-0.2,0.4-0.5,0.9-0.7,1.3
	c-0.2,0.4-0.4,0.9-0.6,1.4l0,0c-0.2,0.5-0.3,0.9-0.5,1.3s-0.2,0.7-0.3,1l-0.3,0.8H142V61.3h33.7v13.8H174.5z M223.5,106h-17.1v-4.4
	h1.1l0.9-0.1l1.2-0.1l0,0c0.3,0,0.7-0.1,1-0.2c0.1,0,0.3-0.1,0.4-0.1c0.2-0.1,0.3-0.3,0.5-0.4c0.1-0.1,0.2-0.3,0.3-0.4l0,0
	c0.1-0.2,0.1-0.4,0.2-0.6c0-0.3,0.1-0.5,0.1-0.8v-25l-10.4,30.7l-0.3,0.8h-2.9l-0.3-0.8l-9.8-30.9v19c0,1.2,0,2.3,0.1,3.2
	c0,0.7,0.1,1.5,0.3,2.2l0,0c0.1,0.5,0.2,1,0.4,1.4c0.1,0.3,0.3,0.5,0.5,0.8l0,0c0.2,0.2,0.3,0.3,0.5,0.4c0.4,0.2,0.8,0.4,1.3,0.5
	l0,0c0.6,0.2,1.1,0.3,1.4,0.4c0.2,0.1,0.4,0.1,0.6,0.1l1.1,0.1v4.3h-16.8v-4.3l1-0.1c0.4,0,0.7-0.1,1.1-0.2c0.4-0.1,0.7-0.2,1.1-0.2
	l0,0c0.3-0.1,0.6-0.2,0.9-0.3c0.2-0.1,0.4-0.2,0.6-0.4l0,0c0.2-0.2,0.4-0.4,0.5-0.7c0.2-0.4,0.3-0.8,0.4-1.2
	c0.1-0.7,0.2-1.4,0.2-2.2c0.1-1,0.1-2.1,0.1-3.4V71.3l0,0c0-0.5,0-1.1-0.1-1.6c0-0.4-0.1-0.8-0.2-1.2c-0.1-0.3-0.2-0.6-0.4-0.9
	c-0.1-0.2-0.3-0.4-0.5-0.6c-0.2-0.2-0.4-0.4-0.6-0.5c-0.3-0.2-0.5-0.3-0.8-0.4c-0.3-0.1-0.7-0.2-1-0.3c-0.3-0.1-0.7-0.1-1-0.1
	l-1.1-0.1v-4.3h14.2l0.3,0.8l9.2,28.5l7.7-23.3c0.2-0.5,0.3-1,0.4-1.4s0.2-1,0.4-1.5l0,0c0.1-0.5,0.2-1,0.3-1.3s0.1-0.6,0.1-0.7
	l0.1-1.1h14v4.4h-1.1c-0.2,0-0.5,0-0.7,0.1c-0.3,0-0.6,0.1-0.9,0.2l0,0l-0.9,0.2c-0.2,0.1-0.4,0.1-0.5,0.2l0,0
	c-0.1,0-0.2,0.1-0.3,0.2c-0.1,0.1-0.2,0.2-0.2,0.3c-0.1,0.2-0.1,0.4-0.2,0.7c0,0.3-0.1,0.5-0.1,0.8l0,0v30.6l0,0
	c0,0.3,0,0.5,0.1,0.8c0,0.2,0.1,0.4,0.2,0.5l0,0c0,0.1,0.1,0.2,0.2,0.3c0.1,0.2,0.3,0.3,0.5,0.4l0,0c0.1,0.1,0.2,0.1,0.4,0.2
	l0.9,0.2l0,0c0.3,0.1,0.6,0.1,1,0.2c0.2,0,0.5,0.1,0.7,0.1h1.1v4.5L223.5,106z M138.8,65.7c-0.2,0-0.4,0-0.7,0.1
	c-0.3,0.1-0.7,0.1-1.1,0.2c-0.3,0.1-0.7,0.2-1,0.3c-0.3,0.1-0.5,0.2-0.7,0.4c-0.2,0.2-0.3,0.4-0.4,0.6c-0.2,0.5-0.3,1-0.4,1.5
	c-0.1,0.7-0.2,1.5-0.2,2.3c0,0.8-0.1,1.8-0.1,2.8v18.5c0,1.2-0.1,2.4-0.3,3.5c-0.2,1.1-0.5,2.1-1,3.1c-0.4,0.9-1,1.8-1.6,2.6
	c-0.6,0.8-1.3,1.5-2,2.1l0,0c-0.7,0.6-1.4,1.1-2.2,1.5c-0.8,0.4-1.5,0.7-2.4,1l0,0c-0.8,0.3-1.5,0.4-2.3,0.6
	c-0.7,0.1-1.5,0.2-2.3,0.2c-1.1,0-2.2-0.1-3.3-0.3c-1-0.2-2-0.5-3-0.8l0,0c-0.9-0.3-1.7-0.8-2.5-1.3c-0.8-0.5-1.5-1-2.1-1.7l0,0
	c-0.6-0.6-1.2-1.3-1.6-2c-0.5-0.7-0.9-1.5-1.2-2.3l0,0c-0.3-0.8-0.5-1.6-0.7-2.5c-0.2-0.8-0.2-1.7-0.2-2.6V68.6c0-0.3,0-0.5-0.1-0.8
	c0-0.2-0.1-0.4-0.2-0.5v-0.1c-0.1-0.1-0.1-0.2-0.2-0.3c-0.2-0.2-0.3-0.3-0.5-0.4l0,0c-0.2-0.1-0.3-0.2-0.5-0.3
	c-0.2-0.1-0.5-0.2-0.7-0.2l0,0c-0.3-0.1-0.6-0.2-0.8-0.2c-0.2,0-0.4-0.1-0.6-0.1l-1-0.1v-4.3H118v4.4h-1.1c-0.2,0-0.5,0-0.7,0.1
	c-0.3,0-0.6,0.1-0.9,0.2l0,0c-0.3,0.1-0.6,0.1-0.8,0.2l-0.5,0.2l0,0c-0.1,0-0.2,0.1-0.3,0.2c-0.1,0.1-0.1,0.2-0.2,0.3l0,0
	c-0.1,0.2-0.1,0.4-0.2,0.7c0,0.3-0.1,0.5-0.1,0.8l0,0v23.4l0,0c0,0.5,0,1.1,0.1,1.7s0.1,1.2,0.2,1.7l0,0c0.2,1.1,0.6,2.1,1.1,3.1
	l0,0c0.3,0.5,0.6,0.9,1,1.3c0.4,0.4,0.8,0.7,1.3,1c0.5,0.3,1.1,0.5,1.7,0.6c0.8,0.2,1.6,0.2,2.4,0.2c0.8,0,1.6-0.1,2.3-0.2
	c0.6-0.1,1.2-0.4,1.8-0.7l0,0c0.5-0.3,1-0.6,1.5-1c0.4-0.4,0.8-0.8,1.1-1.3c0.3-0.5,0.6-1,0.8-1.5c0.2-0.5,0.4-1,0.5-1.5
	c0.1-0.5,0.2-1.1,0.3-1.6c0.1-0.5,0.1-1.1,0.1-1.7l0,0V74.4c0-1.1,0-2.1-0.1-2.9c-0.1-0.8-0.1-1.5-0.3-2.3c-0.1-0.5-0.2-1-0.4-1.5
	c-0.1-0.2-0.2-0.4-0.4-0.6l0,0c-0.2-0.2-0.5-0.4-0.8-0.5c-0.4-0.2-0.8-0.3-1.2-0.4l0,0c-0.5-0.1-0.9-0.2-1.3-0.3
	c-0.3-0.1-0.6-0.1-0.8-0.1l-1.1-0.1v-4.3h17v4.4L138.8,65.7z"/>
</svg>
